<svg xmlns="http://www.w3.org/2000/svg" version="1.1" viewBox="-10 0 2058 2048">
    <path fill="#FFFFFF"
 d="M1030 1687v-1380h870v1380h-870zM1423 525v-77h-275v77h275zM200 1746v-1498l807 -101v1701zM1802 525v-77h-302v77h302zM1429 725v-77h-275v77h275zM1440 925v-77h-275v77h275zM1437 1148v-77h-275v77h275zM1432 1348v-77h-275v77h275zM1429 1548v-77h-275v77h275z
M1802 725v-77h-302v77h302zM1802 925v-77h-302v77h302zM1802 1148v-77h-302v77h302zM1802 1348v-77h-302v77h302zM1802 1548v-77h-302v77h302zM945 1383l-214 -405l207 -384h-241l-75 180l-93 -180h-246l207 390l-218 399h245l82 -191l98 191h248z" />
</svg>